<?xml version="1.0" encoding="utf-8"?>
<!-- Generator: Adobe Illustrator 16.0.0, SVG Export Plug-In . SVG Version: 6.00 Build 0)  -->
<!DOCTYPE svg PUBLIC "-//W3C//DTD SVG 1.1//EN" "http://www.w3.org/Graphics/SVG/1.1/DTD/svg11.dtd">
<svg version="1.1" id="Layer_1" xmlns="http://www.w3.org/2000/svg" xmlns:xlink="http://www.w3.org/1999/xlink" x="0px" y="0px"
	 width="612px" height="792px" viewBox="0 0 612 792" enable-background="new 0 0 612 792" xml:space="preserve">
<g>
	<path d="M72.695,185.361c-3.207,2.159-5.557,3.239-7.05,3.239c-0.802,0-1.394-0.342-1.776-1.024
		c-0.382-0.684-0.574-1.421-0.574-2.215c0-1.524,0.738-3.811,2.213-6.86s2.887-4.573,4.235-4.573c0.692,0,1.285,1.191,1.776,3.573
		s0.992,4.113,1.503,5.192c2.478-2.287,6.066-6.098,10.767-11.433c5.902-6.764,9.819-10.464,11.75-11.1
		c0.656-0.222,1.33-0.333,2.022-0.333c0.691,0,1.266,0.127,1.722,0.381c0.455,0.254,0.683,0.572,0.683,0.953
		c0,0.541-0.529,0.857-1.585,0.953c-1.276,0.604-3.243,2.064-5.902,4.382c-2.66,2.255-4.792,4.367-6.395,6.336
		c-3.899,4.732-7.907,8.591-12.023,11.576c2.04,2.636,5.247,3.954,9.619,3.954c0.473,0,1.184-0.032,2.131-0.095
		c10.129-0.826,17.306-4.652,21.533-11.48c1.712-2.731,2.569-5.431,2.569-8.099c0-2.667-1.112-5.065-3.334-7.193
		c-1.786-1.746-3.726-2.826-5.82-3.239c-2.096-0.413-4.236-0.619-6.422-0.619c-5.611,0-10.785,1.127-15.521,3.382
		c-4.992,2.382-7.488,5.049-7.488,8.003c0,0.794,0.246,1.445,0.738,1.953c0.492,0.508,0.829,0.794,1.011,0.857h-0.328
		c-0.948-0.158-1.785-0.572-2.514-1.238c-0.802-0.826-1.203-1.699-1.203-2.62c0-3.175,2.286-5.907,6.859-8.194
		c4.572-2.287,9.938-3.43,16.095-3.43c2.842,0,5.756,0.286,8.745,0.858c2.987,0.571,5.702,1.938,8.143,4.097
		c2.805,2.541,4.208,5.415,4.208,8.623c0,2.382-0.802,4.843-2.404,7.384c-2.77,4.383-6.905,7.591-12.406,9.623
		c-4.409,1.62-9.164,2.43-14.264,2.43C78.906,189.362,75.135,188.028,72.695,185.361z M65.262,185.17
		c0,0.984,0.219,1.841,0.656,2.572c1.566-0.604,3.461-1.858,5.684-3.763c-1.057-1.524-1.722-2.723-1.995-3.597
		c-0.273-0.873-0.465-2.025-0.574-3.454C66.519,180.073,65.262,182.82,65.262,185.17z M73.077,171.832
		c0.036,0,0.073-0.016,0.109-0.047c0,0.064-0.009,0.095-0.027,0.095C73.14,171.879,73.113,171.864,73.077,171.832z"/>
	<path d="M148.442,157.397c3.424,0,5.137,1.334,5.137,4.001c0,0.095,0,0.207,0,0.333c-0.183,2.763-3.443,5.002-9.783,6.717
		c5.501,0.508,8.252,2.191,8.252,5.05c0,0.477-0.073,0.921-0.218,1.334c-1.093,3.748-4.318,6.796-9.674,9.146
		c-4.7,2.033-9.837,3.049-15.412,3.049c-3.571,0-6.495-0.492-8.772-1.477c-2.277-0.984-3.416-2.397-3.416-4.24
		c0-0.984,0.4-2.112,1.202-3.382c0.801-1.27,2.45-2.365,4.946-3.287c2.495-0.92,4.581-1.381,6.257-1.381
		c0.438,0,0.656,0.127,0.656,0.381c0,0.318-0.255,0.476-0.765,0.476c-1.203,0-2.76,0.517-4.673,1.548
		c-1.913,1.032-3.052,2.104-3.416,3.215c-0.183,0.636-0.273,1.176-0.273,1.62c0,2.763,2.167,4.478,6.503,5.145
		c1.129,0.191,2.276,0.286,3.443,0.286c3.17,0,6.413-0.667,9.729-2.001c5.101-2.064,8.543-5.033,10.329-8.908
		c0.254-0.54,0.383-1.079,0.383-1.62c0-1.27-0.765-2.191-2.295-2.763s-3.353-0.857-5.465-0.857c-2.114,0-3.88,0.238-5.301,0.714
		c-0.328,0.127-0.675,0.191-1.039,0.191c-0.656,0-0.984-0.27-0.984-0.81c0-0.381,0.155-0.714,0.465-1
		c0.309-0.286,0.683-0.429,1.12-0.429c3.133,0,6.066-0.46,8.799-1.381c3.498-1.207,5.465-2.906,5.902-5.097
		c0.036-0.159,0.055-0.365,0.055-0.619c0-1.365-0.975-2.049-2.924-2.049c-1.95,0-4.163,0.405-6.641,1.215
		c-2.478,0.81-4.573,1.691-6.285,2.644c-0.183,0.095-0.31,0.143-0.383,0.143c-0.255,0-0.382-0.207-0.382-0.62
		c0-0.953,0.346-1.492,1.038-1.62c0.838-0.222,2.167-1.079,3.99-2.572c0.219-0.19,0.418-0.254,0.601-0.19
		c0.182,0.064,0.273,0.183,0.273,0.357c0,0.175-0.082,0.326-0.246,0.453c-0.164,0.127-0.337,0.286-0.519,0.477
		C142.558,158.128,145.819,157.397,148.442,157.397z"/>
	<path d="M72.695,242.526c-3.207,2.159-5.557,3.239-7.05,3.239c-0.802,0-1.394-0.342-1.776-1.024
		c-0.382-0.684-0.574-1.421-0.574-2.215c0-1.524,0.738-3.811,2.213-6.86s2.887-4.573,4.235-4.573c0.692,0,1.285,1.191,1.776,3.573
		s0.992,4.113,1.503,5.192c2.478-2.287,6.066-6.098,10.767-11.433c5.902-6.764,9.819-10.464,11.75-11.1
		c0.656-0.222,1.33-0.333,2.022-0.333c0.691,0,1.266,0.127,1.722,0.381c0.455,0.254,0.683,0.572,0.683,0.953
		c0,0.541-0.529,0.857-1.585,0.953c-1.276,0.604-3.243,2.064-5.902,4.382c-2.66,2.255-4.792,4.367-6.395,6.336
		c-3.899,4.732-7.907,8.591-12.023,11.576c2.04,2.636,5.247,3.954,9.619,3.954c0.473,0,1.184-0.032,2.131-0.095
		c10.129-0.826,17.306-4.652,21.533-11.48c1.712-2.731,2.569-5.431,2.569-8.099c0-2.667-1.112-5.065-3.334-7.193
		c-1.786-1.746-3.726-2.826-5.82-3.239c-2.096-0.413-4.236-0.619-6.422-0.619c-5.611,0-10.785,1.127-15.521,3.382
		c-4.992,2.382-7.488,5.049-7.488,8.003c0,0.794,0.246,1.445,0.738,1.953c0.492,0.508,0.829,0.794,1.011,0.857h-0.328
		c-0.948-0.158-1.785-0.572-2.514-1.238c-0.802-0.826-1.203-1.699-1.203-2.62c0-3.175,2.286-5.907,6.859-8.194
		c4.572-2.287,9.938-3.43,16.095-3.43c2.842,0,5.756,0.286,8.745,0.858c2.987,0.571,5.702,1.938,8.143,4.097
		c2.805,2.541,4.208,5.415,4.208,8.623c0,2.382-0.802,4.843-2.404,7.384c-2.77,4.383-6.905,7.591-12.406,9.623
		c-4.409,1.62-9.164,2.43-14.264,2.43C78.906,246.528,75.135,245.194,72.695,242.526z M65.262,242.336
		c0,0.984,0.219,1.841,0.656,2.572c1.566-0.604,3.461-1.858,5.684-3.763c-1.057-1.524-1.722-2.723-1.995-3.597
		c-0.273-0.873-0.465-2.025-0.574-3.454C66.519,237.239,65.262,239.986,65.262,242.336z M73.077,228.997
		c0.036,0,0.073-0.016,0.109-0.047c0,0.064-0.009,0.095-0.027,0.095C73.14,229.045,73.113,229.029,73.077,228.997z"/>
	<path d="M131.008,229.474l0.765-0.143c0.4,0,0.783,0.143,1.148,0.429c0.364,0.286,0.546,0.508,0.546,0.667
		c0,0.159-1.13,1.691-3.389,4.597c-2.259,2.906-3.388,4.931-3.388,6.074c0,0.095,0.018,0.19,0.055,0.286
		c0.182,0.731,0.582,1.096,1.202,1.096c1.894,0,5.356-2.731,10.384-8.193c0.109-0.126,0.237-0.191,0.383-0.191
		c0.145,0,0.219,0.119,0.219,0.357s-0.164,0.548-0.492,0.929c-4.664,5.431-8.216,8.146-10.657,8.146
		c-0.328,0-0.638-0.048-0.929-0.143c-1.604-0.54-2.405-1.588-2.405-3.144c0-0.54,0.072-1.079,0.218-1.62l-3.388,2.858
		c-2.15,1.651-3.708,2.477-4.673,2.477c-0.966,0-1.886-0.27-2.76-0.81c-0.984-0.635-1.476-1.477-1.476-2.525
		c0-2.318,1.858-5.089,5.574-8.312c3.716-3.223,7.123-4.835,10.22-4.835c1.202,0,2.003,0.366,2.405,1.096
		c0.109,0.255,0.2,0.469,0.273,0.643C130.917,229.387,130.972,229.474,131.008,229.474z M114.667,241.192
		c0,1.144,0.455,1.715,1.366,1.715c2.112,0,4.991-2.016,8.635-6.05l5.793-6.955c-0.292-0.444-0.765-0.667-1.421-0.667
		c-2.223,0-5.174,1.5-8.854,4.502C116.507,236.738,114.667,239.224,114.667,241.192z"/>
	<path d="M149.589,228.378l7.87-0.095c0.109,0.064,0.164,0.111,0.164,0.143c0,0.286-2.268,0.684-6.804,1.191
		c-4.536,0.508-6.987,0.81-7.351,0.905c-0.692,0.541-1.967,2.152-3.826,4.835c-1.858,2.684-2.787,4.645-2.787,5.883
		c0,1.175,0.929,1.763,2.787,1.763c0.875,0,2.022-0.238,3.443-0.715c1.421-0.476,2.514-0.921,3.279-1.334
		c2.041-1.111,4.227-2.747,6.559-4.907c0.51-0.444,0.855-0.667,1.038-0.667c0.109,0,0.164,0.095,0.164,0.286
		s-0.273,0.572-0.82,1.143c-1.895,2.033-4.026,3.668-6.394,4.907c-2.842,1.524-5.557,2.287-8.144,2.287
		c-1.129,0-2.049-0.214-2.76-0.643s-1.065-1.293-1.065-2.596c0-1.302,0.656-3.088,1.967-5.359c1.312-2.27,2.313-3.961,3.006-5.073
		c-0.511,0.095-0.948,0.143-1.312,0.143c-1.057,0-1.585-0.365-1.585-1.096c0-0.54,0.437-0.921,1.312-1.144
		c0.109,0,0.273-0.016,0.492-0.047h3.17c0.656-0.73,1.402-1.572,2.241-2.525c1.02-1.144,1.712-1.715,2.077-1.715
		c0.364,0,0.819,0.127,1.366,0.381c0.546,0.254,0.82,0.556,0.82,0.905c0,0.35-0.875,1.381-2.624,3.096
		C146.82,228.362,148.059,228.378,149.589,228.378z"/>
	<path d="M169.756,229.474l0.765-0.143c0.4,0,0.783,0.143,1.148,0.429c0.364,0.286,0.546,0.508,0.546,0.667
		c0,0.159-1.13,1.691-3.389,4.597c-2.259,2.906-3.388,4.931-3.388,6.074c0,0.095,0.018,0.19,0.055,0.286
		c0.182,0.731,0.582,1.096,1.202,1.096c1.894,0,5.356-2.731,10.384-8.193c0.109-0.126,0.237-0.191,0.383-0.191
		c0.145,0,0.219,0.119,0.219,0.357s-0.164,0.548-0.492,0.929c-4.664,5.431-8.216,8.146-10.657,8.146
		c-0.328,0-0.638-0.048-0.929-0.143c-1.604-0.54-2.405-1.588-2.405-3.144c0-0.54,0.072-1.079,0.218-1.62l-3.388,2.858
		c-2.15,1.651-3.708,2.477-4.673,2.477c-0.966,0-1.886-0.27-2.76-0.81c-0.984-0.635-1.476-1.477-1.476-2.525
		c0-2.318,1.858-5.089,5.574-8.312c3.716-3.223,7.123-4.835,10.22-4.835c1.202,0,2.003,0.366,2.405,1.096
		c0.109,0.255,0.2,0.469,0.273,0.643C169.665,229.387,169.719,229.474,169.756,229.474z M153.415,241.192
		c0,1.144,0.455,1.715,1.366,1.715c2.112,0,4.991-2.016,8.635-6.05l5.793-6.955c-0.292-0.444-0.765-0.667-1.421-0.667
		c-2.223,0-5.174,1.5-8.854,4.502C155.254,236.738,153.415,239.224,153.415,241.192z"/>
	<path d="M195.114,242.526c-3.207,2.159-5.557,3.239-7.05,3.239c-0.802,0-1.394-0.342-1.776-1.024
		c-0.382-0.684-0.574-1.421-0.574-2.215c0-1.524,0.738-3.811,2.213-6.86s2.887-4.573,4.235-4.573c0.692,0,1.285,1.191,1.776,3.573
		s0.992,4.113,1.503,5.192c2.478-2.287,6.066-6.098,10.767-11.433c5.902-6.764,9.819-10.464,11.75-11.1
		c0.656-0.222,1.33-0.333,2.022-0.333c0.691,0,1.266,0.127,1.722,0.381c0.455,0.254,0.683,0.572,0.683,0.953
		c0,0.541-0.529,0.857-1.585,0.953c-1.276,0.604-3.243,2.064-5.902,4.382c-2.66,2.255-4.792,4.367-6.395,6.336
		c-3.899,4.732-7.907,8.591-12.023,11.576c2.04,2.636,5.247,3.954,9.619,3.954c0.473,0,1.184-0.032,2.131-0.095
		c10.129-0.826,17.306-4.652,21.533-11.48c1.712-2.731,2.569-5.431,2.569-8.099c0-2.667-1.112-5.065-3.334-7.193
		c-1.786-1.746-3.726-2.826-5.82-3.239c-2.096-0.413-4.236-0.619-6.422-0.619c-5.611,0-10.785,1.127-15.521,3.382
		c-4.992,2.382-7.488,5.049-7.488,8.003c0,0.794,0.246,1.445,0.738,1.953c0.492,0.508,0.829,0.794,1.011,0.857h-0.328
		c-0.948-0.158-1.785-0.572-2.514-1.238c-0.802-0.826-1.203-1.699-1.203-2.62c0-3.175,2.286-5.907,6.859-8.194
		c4.572-2.287,9.938-3.43,16.095-3.43c2.842,0,5.756,0.286,8.745,0.858c2.987,0.571,5.702,1.938,8.143,4.097
		c2.805,2.541,4.208,5.415,4.208,8.623c0,2.382-0.802,4.843-2.404,7.384c-2.77,4.383-6.905,7.591-12.406,9.623
		c-4.409,1.62-9.164,2.43-14.264,2.43C201.325,246.528,197.554,245.194,195.114,242.526z M187.681,242.336
		c0,0.984,0.219,1.841,0.656,2.572c1.566-0.604,3.461-1.858,5.684-3.763c-1.057-1.524-1.722-2.723-1.995-3.597
		c-0.273-0.873-0.465-2.025-0.574-3.454C188.938,237.239,187.681,239.986,187.681,242.336z M195.496,228.997
		c0.036,0,0.073-0.016,0.109-0.047c0,0.064-0.009,0.095-0.027,0.095C195.559,229.045,195.532,229.029,195.496,228.997z"/>
	<path d="M246.377,243.956c-2.732,0-4.099-1.317-4.099-3.954c0-1.334,0.4-2.794,1.202-4.383c0.801-1.587,1.675-2.921,2.624-4.001
		c-0.183,0.032-0.419,0.048-0.71,0.048c-0.875,0-1.604-0.54-2.186-1.62l-4.044,4.573c-2.26,2.446-3.571,3.668-3.935,3.668
		c-0.182,0-0.273-0.063-0.273-0.19c0-0.317,0.309-0.778,0.929-1.382c3.17-3.207,5.411-5.922,6.722-8.146
		c0.838-2.763,1.894-4.145,3.17-4.145c0.838,0,1.257,0.318,1.257,0.953c0,0.636-0.456,1.446-1.366,2.43l-1.312,1.524
		c0,0.667,0.564,1,1.694,1c0.656,0,1.384-0.206,2.186-0.619l1.421-0.762c0.073-0.031,0.254-0.048,0.546-0.048
		c0.292,0,0.602,0.159,0.929,0.477c0.328,0.318,0.438,0.604,0.328,0.857l-3.771,4.145c-2.333,2.604-3.498,4.661-3.498,6.169
		c0,1.509,0.801,2.263,2.405,2.263c1.675,0,3.734-0.778,6.176-2.334c1.457-0.921,2.787-1.953,3.99-3.097
		c1.129-1.143,1.749-1.715,1.858-1.715c0.254,0,0.383,0.119,0.383,0.357c0,0.238-0.164,0.517-0.492,0.833l-1.749,1.715
		c-0.984,0.89-2.077,1.747-3.279,2.573C250.604,243.019,248.235,243.956,246.377,243.956z"/>
	<path d="M258.729,244.241c-1.858,0-2.787-1.048-2.787-3.144c0-1.715,1.074-4.089,3.225-7.122c2.149-3.032,3.88-4.565,5.192-4.597
		c0.364,0,0.773,0.127,1.229,0.381c0.456,0.255,0.683,0.508,0.683,0.762c-0.183,0.223-0.401,0.469-0.656,0.738
		c-0.255,0.271-0.528,0.564-0.82,0.881c-0.292,0.318-0.692,0.771-1.202,1.358c-0.511,0.588-1.002,1.151-1.476,1.691
		c-2.732,3.081-4.099,5.201-4.099,6.36c0,1.16,0.455,1.739,1.367,1.739c0.765,0,1.803-0.365,3.115-1.096
		c3.061-1.651,5.483-3.461,7.269-5.431c0.656-0.73,1.102-1.096,1.339-1.096c0.237,0,0.355,0.127,0.355,0.381
		c0,0.255-0.419,0.762-1.257,1.524c-0.838,0.762-1.503,1.366-1.995,1.811c-0.492,0.445-0.829,0.738-1.011,0.881
		c-0.183,0.143-0.519,0.413-1.011,0.81c-0.492,0.397-0.866,0.675-1.121,0.834c-0.255,0.159-0.62,0.397-1.093,0.714
		c-0.474,0.318-0.894,0.548-1.257,0.691c-0.365,0.143-0.784,0.31-1.257,0.5C260.696,244.098,259.785,244.241,258.729,244.241z
		 M270.178,224.733c0.492,0.302,0.738,0.66,0.738,1.072c0,0.413-0.228,0.77-0.683,1.072c-0.456,0.302-0.956,0.453-1.503,0.453
		c-0.546,0-1.048-0.174-1.503-0.524c-0.456-0.349-0.683-0.746-0.683-1.191c0-0.889,0.692-1.333,2.077-1.333
		C269.167,224.281,269.687,224.432,270.178,224.733z"/>
	<path d="M283.978,224.996c1.093,0,2.022,0.318,2.788,0.953c0.765,0.636,1.147,1.524,1.147,2.668c0,2.509-2.387,5.653-7.159,9.432
		c-4.044,3.176-7.306,5.114-9.783,5.812c-0.401,0-0.929-0.191-1.585-0.572c-0.656-0.381-0.984-0.73-0.984-1.048
		c0-0.698,0.875-3.064,2.623-7.098c1.749-4.033,2.952-6.288,3.607-6.765c0.145-0.126,0.382-0.19,0.71-0.19
		c0.328,0,0.674,0.151,1.038,0.453c0.364,0.302,0.564,0.659,0.602,1.072c0,0.032-0.902,1.874-2.706,5.526
		c-1.803,3.652-2.65,5.828-2.541,6.526c1.566-0.413,4.363-2.08,8.389-5.002c4.025-2.921,6.039-5.542,6.039-7.86
		c0-1.397-0.802-2.413-2.405-3.049c-0.255-0.095-0.383-0.238-0.383-0.429C283.376,225.139,283.576,224.996,283.978,224.996z"/>
	<path d="M288.35,244.336c-0.401,0-0.765-0.047-1.093-0.143c-2.332-0.572-3.498-1.715-3.498-3.43c0-2.223,1.604-4.795,4.81-7.717
		c3.206-2.921,6.084-4.383,8.635-4.383c0.837,0,1.521,0.199,2.049,0.596c0.528,0.397,0.792,0.881,0.792,1.453
		c0,1.779-1.54,3.478-4.618,5.098c-3.079,1.62-5.584,2.429-7.515,2.429c-0.292,0-0.546-0.031-0.765-0.095
		c-0.546,0.857-0.82,1.763-0.82,2.715c0,1.652,0.902,2.478,2.705,2.478c1.804,0,4.145-1.064,7.023-3.192
		c2.222-1.556,4.117-3.208,5.684-4.955c0.328-0.381,0.609-0.571,0.847-0.571c0.236,0,0.355,0.095,0.355,0.286
		s-0.146,0.461-0.437,0.81c-1.968,2.255-4.336,4.256-7.105,6.002C292.63,243.463,290.281,244.336,288.35,244.336z M298.679,230.617
		c0-0.381-0.465-0.571-1.394-0.571c-0.929,0-2.25,0.619-3.962,1.858c-2.295,1.651-4.081,3.382-5.356,5.192
		c0.219,0.064,0.455,0.095,0.71,0.095c1.384,0,3.233-0.643,5.547-1.929c2.313-1.287,3.761-2.692,4.345-4.216
		C298.643,230.887,298.679,230.744,298.679,230.617z"/>
	<path d="M308.406,228.664c0.984,0,1.476,0.333,1.476,1c0,0.19-0.054,0.381-0.163,0.572c-3.28,3.97-5.247,6.971-5.903,9.003
		c8.489-7.399,13.645-11.1,15.467-11.1c0.183-0.031,0.346-0.047,0.491-0.047c1.021,0,1.531,0.397,1.531,1.191
		c0,0.159-0.037,0.318-0.109,0.476c-0.074,0.159-0.803,1.017-2.187,2.573c-1.604,1.651-2.96,3.239-4.071,4.764
		s-1.667,2.795-1.667,3.811c0,1.017,0.255,1.524,0.765,1.524c1.604,0,4.391-1.921,8.362-5.764c0.073-0.063,0.2-0.206,0.383-0.429
		c0.546-0.572,0.874-0.857,0.983-0.857s0.164,0.159,0.164,0.476c0,0.318-0.256,0.731-0.766,1.239
		c-4.518,4.478-7.725,6.717-9.618,6.717c-1.786,0-2.679-0.857-2.679-2.572s0.729-3.684,2.187-5.907l3.498-4.954
		c-2.479,1.588-4.683,3.327-6.613,5.216c-1.932,1.89-3.689,3.724-5.274,5.502c-1.585,1.779-2.505,2.668-2.76,2.668
		c-0.546,0-0.975-0.198-1.284-0.596c-0.31-0.396-0.465-0.889-0.465-1.477c0-0.587,0.237-1.374,0.71-2.358
		c0.473-0.984,1.074-2.175,1.804-3.573l-3.279,3.001c-0.801,0.699-1.302,1.048-1.503,1.048c-0.2,0-0.3-0.103-0.3-0.31
		c0-0.207,0.146-0.437,0.437-0.691c1.349-1.174,2.514-2.302,3.498-3.382c0.947-1.079,2.897-3.144,5.848-6.193
		C307.695,228.854,308.042,228.664,308.406,228.664z"/>
	<path d="M342.674,242.526c-3.207,2.159-5.557,3.239-7.051,3.239c-0.801,0-1.393-0.342-1.775-1.024
		c-0.383-0.684-0.574-1.421-0.574-2.215c0-1.524,0.738-3.811,2.213-6.86c1.477-3.049,2.888-4.573,4.236-4.573
		c0.691,0,1.284,1.191,1.775,3.573c0.492,2.382,0.992,4.113,1.504,5.192c2.477-2.287,6.066-6.098,10.766-11.433
		c5.902-6.764,9.818-10.464,11.75-11.1c0.656-0.222,1.33-0.333,2.023-0.333c0.691,0,1.266,0.127,1.721,0.381
		c0.455,0.254,0.684,0.572,0.684,0.953c0,0.541-0.529,0.857-1.586,0.953c-1.275,0.604-3.242,2.064-5.902,4.382
		c-2.66,2.255-4.791,4.367-6.394,6.336c-3.899,4.732-7.907,8.591-12.023,11.576c2.04,2.636,5.247,3.954,9.618,3.954
		c0.474,0,1.184-0.032,2.132-0.095c10.128-0.826,17.306-4.652,21.532-11.48c1.713-2.731,2.57-5.431,2.57-8.099
		c0-2.667-1.113-5.065-3.334-7.193c-1.785-1.746-3.727-2.826-5.82-3.239c-2.096-0.413-4.236-0.619-6.422-0.619
		c-5.611,0-10.785,1.127-15.521,3.382c-4.992,2.382-7.488,5.049-7.488,8.003c0,0.794,0.246,1.445,0.738,1.953
		c0.492,0.508,0.828,0.794,1.012,0.857h-0.328c-0.948-0.158-1.785-0.572-2.514-1.238c-0.803-0.826-1.203-1.699-1.203-2.62
		c0-3.175,2.286-5.907,6.859-8.194c4.572-2.287,9.938-3.43,16.096-3.43c2.842,0,5.756,0.286,8.744,0.858
		c2.986,0.571,5.701,1.938,8.143,4.097c2.805,2.541,4.209,5.415,4.209,8.623c0,2.382-0.803,4.843-2.406,7.384
		c-2.768,4.383-6.904,7.591-12.406,9.623c-4.408,1.62-9.162,2.43-14.264,2.43S345.114,245.194,342.674,242.526z M335.24,242.336
		c0,0.984,0.219,1.841,0.656,2.572c1.566-0.604,3.461-1.858,5.684-3.763c-1.057-1.524-1.721-2.723-1.994-3.597
		c-0.273-0.873-0.465-2.025-0.574-3.454C336.498,237.239,335.24,239.986,335.24,242.336z M343.057,228.997
		c0.035,0,0.072-0.016,0.109-0.047c0,0.064-0.01,0.095-0.027,0.095C343.119,229.045,343.092,229.029,343.057,228.997z"/>
	<path d="M397.053,233.618c0,1.112-1.222,2.97-3.662,5.574c-2.879,3.081-5.338,4.621-7.378,4.621h-0.875
		c-0.947,0-1.693-0.429-2.24-1.286c-0.438-0.603-0.656-1.27-0.656-2.001c0-1.905,1.594-4.581,4.782-8.027
		c3.188-3.445,5.766-5.168,7.733-5.168c1.858,0,2.787,0.857,2.787,2.572c0,0.445-0.091,1.017-0.273,1.715
		c0.036,0.095,0.383,0.143,1.039,0.143c0.655,0,1.657-0.302,3.006-0.905c-0.037,0.541-1.476,1.318-4.317,2.334
		C397.033,233.316,397.053,233.459,397.053,233.618z M393.5,231.141c-1.239,0-2.997,1.271-5.274,3.811
		c-2.277,2.541-3.415,4.415-3.415,5.621c0,1.207,0.437,1.81,1.312,1.81c1.566,0,3.552-1.238,5.957-3.716
		c2.404-2.477,3.607-4.255,3.607-5.335C395.103,233.046,394.374,232.316,393.5,231.141z"/>
	<path d="M402.298,244.336c-0.401,0-0.765-0.047-1.093-0.143c-2.332-0.572-3.498-1.715-3.498-3.43c0-2.223,1.604-4.795,4.81-7.717
		c3.206-2.921,6.085-4.383,8.635-4.383c0.838,0,1.521,0.199,2.05,0.596c0.528,0.397,0.793,0.937,0.793,1.62
		c0,0.683-0.238,1.398-0.711,2.144c-0.474,0.747-1.185,1.12-2.132,1.12s-1.421-0.254-1.421-0.762c0-0.349,0.246-0.881,0.738-1.596
		c0.492-0.715,0.737-1.096,0.737-1.144c0-0.047-0.055-0.071-0.163-0.071c-1.021,0.095-2.415,0.731-4.182,1.905
		c-1.768,1.175-2.979,2.16-3.634,2.954l-2.132,2.715c-0.364,0.508-0.629,1.112-0.792,1.811c-0.164,0.699-0.246,1.223-0.246,1.572
		c0,0.35,0.227,0.747,0.683,1.191c0.455,0.445,1.102,0.667,1.94,0.667c1.821,0,4.08-0.929,6.777-2.787
		c2.695-1.858,4.772-3.628,6.229-5.312c0.183-0.19,0.401-0.286,0.656-0.286s0.383,0.064,0.383,0.19c0,0.127-0.092,0.286-0.273,0.477
		c-2.004,2.319-4.399,4.343-7.187,6.074C406.479,243.472,404.156,244.336,402.298,244.336z"/>
	<path d="M428.913,244.003c-0.183,0.031-0.574,0.048-1.175,0.048c-0.602,0-1.202-0.207-1.804-0.619
		c-0.602-0.413-0.902-0.945-0.902-1.596c0-0.65,0.137-1.373,0.41-2.167c0.273-0.793,0.465-1.397,0.574-1.81
		c-4.19,4.256-7.47,6.383-9.838,6.383c-1.494,0-2.313-0.81-2.459-2.429c0-0.127,0-0.238,0-0.333c0-1.365,0.947-3.208,2.842-5.526
		c-1.057,0.826-2.132,1.779-3.225,2.858c-0.145,0.127-0.328,0.19-0.546,0.19c-0.146,0-0.219-0.079-0.219-0.238
		c0-0.159,0.164-0.429,0.491-0.81l7.542-7.717c0.947-0.953,1.913-1.429,2.896-1.429c0.984,0,1.477,0.286,1.477,0.857
		c0,0.223-0.109,0.429-0.328,0.619c-1.458,1.175-3.289,3.129-5.493,5.86c-2.204,2.731-3.306,4.748-3.306,6.05
		c0,0.572,0.218,0.857,0.655,0.857c1.53,0,3.752-1.317,6.668-3.954c1.02-0.889,2.914-2.85,5.684-5.883
		c2.769-3.033,4.591-4.55,5.465-4.55c1.312,0,1.968,0.445,1.968,1.334c0,0.318-0.765,1.239-2.295,2.763
		c-2.077,2.191-3.662,3.978-4.755,5.359c-1.094,1.382-1.64,2.501-1.64,3.359c0,0.857,0.273,1.286,0.819,1.286
		c0.255,0,0.547-0.063,0.875-0.19c2.514-0.953,5.52-3.176,9.018-6.669c0.219-0.222,0.437-0.333,0.655-0.333s0.328,0.104,0.328,0.31
		c0,0.207-0.128,0.437-0.383,0.691c-1.566,1.588-3.407,3.184-5.52,4.788C431.281,242.963,429.787,243.844,428.913,244.003z"/>
	<path d="M462.961,243.146c-2.479,0-3.717-1-3.717-3.001c0-1.144,0.583-2.707,1.749-4.692c1.166-1.984,2.386-3.66,3.662-5.026
		c-2.26,0.953-4.864,2.676-7.815,5.169s-5.01,5.105-6.176,7.836c-0.183,0.254-0.492,0.381-0.929,0.381
		c-0.875,0-1.312-0.429-1.312-1.286c0.364-1.746,1.184-3.747,2.46-6.002c0.4-0.73,1.585-2.858,3.552-6.383
		c-2.842,1.62-5.256,3.358-7.241,5.216c-1.986,1.858-3.825,3.724-5.52,5.597c-1.694,1.875-2.65,2.811-2.869,2.811
		c-0.475,0-0.884-0.191-1.229-0.572c-0.348-0.381-0.52-0.762-0.52-1.144c0-0.571,0.947-2.667,2.842-6.288l-3.279,3.001
		c-0.801,0.699-1.302,1.048-1.503,1.048c-0.199,0-0.301-0.103-0.301-0.31c0-0.207,0.146-0.437,0.438-0.691
		c1.349-1.174,2.55-2.35,3.607-3.525c1.056-1.174,2.805-3.271,5.246-6.288c0.4-0.476,0.965-0.714,1.694-0.714
		c0.729,0,1.093,0.302,1.093,0.905c0,0.223-0.966,1.771-2.896,4.645c-1.932,2.875-3.006,4.677-3.225,5.407
		c1.494-1.429,3.734-3.35,6.723-5.764c4.481-3.621,7.433-5.431,8.854-5.431c0.438,0,0.838,0.112,1.202,0.333
		c0.364,0.223,0.547,0.469,0.547,0.738c0,0.271-0.711,1.469-2.132,3.597c-1.385,2.191-2.149,3.494-2.295,3.906
		c4.044-2.954,6.066-4.446,6.066-4.478c3.424-2.318,5.884-3.478,7.378-3.478c0.438,0,0.848,0.119,1.229,0.357
		c0.383,0.238,0.574,0.517,0.574,0.833c0,0.064-1.185,1.405-3.553,4.025s-3.698,4.772-3.989,6.455c-0.073,0.572,0.055,1,0.383,1.286
		c0.327,0.286,0.919,0.429,1.775,0.429s2.113-0.516,3.771-1.548c1.657-1.032,3.343-2.421,5.056-4.168
		c0.655-0.635,1.102-0.953,1.339-0.953c0.236,0,0.355,0.08,0.355,0.238c0,0.223-0.164,0.477-0.492,0.762
		c-1.786,1.875-3.708,3.47-5.766,4.788C465.738,242.487,464.126,243.146,462.961,243.146z"/>
	<path d="M474.109,244.336c-0.401,0-0.765-0.047-1.093-0.143c-2.331-0.572-3.498-1.715-3.498-3.43c0-2.223,1.604-4.795,4.81-7.717
		c3.206-2.921,6.084-4.383,8.635-4.383c0.838,0,1.521,0.199,2.05,0.596c0.527,0.397,0.792,0.881,0.792,1.453
		c0,1.779-1.539,3.478-4.617,5.098c-3.08,1.62-5.584,2.429-7.516,2.429c-0.292,0-0.546-0.031-0.765-0.095
		c-0.547,0.857-0.82,1.763-0.82,2.715c0,1.652,0.902,2.478,2.706,2.478s4.144-1.064,7.022-3.192
		c2.222-1.556,4.117-3.208,5.684-4.955c0.328-0.381,0.61-0.571,0.848-0.571c0.236,0,0.355,0.095,0.355,0.286
		s-0.146,0.461-0.438,0.81c-1.968,2.255-4.337,4.256-7.104,6.002C478.391,243.463,476.04,244.336,474.109,244.336z M484.438,230.617
		c0-0.381-0.464-0.571-1.394-0.571c-0.929,0-2.25,0.619-3.962,1.858c-2.296,1.651-4.081,3.382-5.356,5.192
		c0.219,0.064,0.455,0.095,0.711,0.095c1.384,0,3.233-0.643,5.547-1.929c2.313-1.287,3.762-2.692,4.345-4.216
		C484.402,230.887,484.438,230.744,484.438,230.617z"/>
	<path d="M494.167,228.664c0.984,0,1.476,0.333,1.476,1c0,0.19-0.055,0.381-0.164,0.572c-3.278,3.97-5.246,6.971-5.902,9.003
		c8.489-7.399,13.645-11.1,15.467-11.1c0.182-0.031,0.346-0.047,0.492-0.047c1.02,0,1.53,0.397,1.53,1.191
		c0,0.159-0.037,0.318-0.109,0.476c-0.073,0.159-0.802,1.017-2.187,2.573c-1.604,1.651-2.96,3.239-4.071,4.764
		c-1.112,1.524-1.667,2.795-1.667,3.811c0,1.017,0.255,1.524,0.766,1.524c1.603,0,4.39-1.921,8.361-5.764
		c0.072-0.063,0.2-0.206,0.383-0.429c0.546-0.572,0.874-0.857,0.983-0.857s0.164,0.159,0.164,0.476c0,0.318-0.255,0.731-0.765,1.239
		c-4.519,4.478-7.726,6.717-9.619,6.717c-1.786,0-2.678-0.857-2.678-2.572s0.728-3.684,2.186-5.907l3.498-4.954
		c-2.479,1.588-4.683,3.327-6.613,5.216c-1.932,1.89-3.688,3.724-5.273,5.502c-1.585,1.779-2.506,2.668-2.761,2.668
		c-0.546,0-0.975-0.198-1.284-0.596c-0.31-0.396-0.464-0.889-0.464-1.477c0-0.587,0.236-1.374,0.71-2.358
		c0.474-0.984,1.074-2.175,1.804-3.573l-3.279,3.001c-0.801,0.699-1.302,1.048-1.503,1.048c-0.199,0-0.301-0.103-0.301-0.31
		c0-0.207,0.146-0.437,0.438-0.691c1.349-1.174,2.514-2.302,3.498-3.382c0.946-1.079,2.896-3.144,5.848-6.193
		C493.457,228.854,493.803,228.664,494.167,228.664z"/>
	<path d="M521.657,228.378l7.869-0.095c0.109,0.064,0.164,0.111,0.164,0.143c0,0.286-2.268,0.684-6.804,1.191
		c-4.536,0.508-6.987,0.81-7.351,0.905c-0.693,0.541-1.968,2.152-3.826,4.835c-1.858,2.684-2.787,4.645-2.787,5.883
		c0,1.175,0.929,1.763,2.787,1.763c0.875,0,2.022-0.238,3.443-0.715c1.421-0.476,2.514-0.921,3.279-1.334
		c2.04-1.111,4.226-2.747,6.558-4.907c0.51-0.444,0.856-0.667,1.039-0.667c0.109,0,0.164,0.095,0.164,0.286s-0.273,0.572-0.82,1.143
		c-1.895,2.033-4.026,3.668-6.395,4.907c-2.842,1.524-5.557,2.287-8.143,2.287c-1.13,0-2.05-0.214-2.76-0.643
		c-0.711-0.429-1.066-1.293-1.066-2.596c0-1.302,0.656-3.088,1.968-5.359c1.312-2.27,2.313-3.961,3.006-5.073
		c-0.511,0.095-0.948,0.143-1.312,0.143c-1.058,0-1.585-0.365-1.585-1.096c0-0.54,0.438-0.921,1.312-1.144
		c0.109,0,0.273-0.016,0.492-0.047h3.17c0.655-0.73,1.401-1.572,2.24-2.525c1.02-1.144,1.712-1.715,2.077-1.715
		c0.363,0,0.819,0.127,1.366,0.381c0.547,0.254,0.819,0.556,0.819,0.905c0,0.35-0.874,1.381-2.623,3.096
		C518.888,228.362,520.127,228.378,521.657,228.378z"/>
	<path d="M533.68,243.003c-1.057,0.54-2.359,0.81-3.907,0.81c-1.549,0-2.732-0.444-3.553-1.334c-0.819-0.889-1.521-2.302-2.104-4.24
		c-0.656,0.572-1.111,0.857-1.366,0.857c-0.183,0-0.273-0.111-0.273-0.333s0.091-0.413,0.273-0.572
		c1.202-1.302,3.242-3.175,6.121-5.622l6.886-5.621c1.968-1.62,3.133-2.43,3.498-2.43c1.165,0,1.749,0.381,1.749,1.144
		c0,0.381-0.174,0.755-0.52,1.12c-0.347,0.365-0.602,0.651-0.766,0.857c-0.163,0.207-0.337,0.405-0.519,0.595
		c-0.656,0.985-1.321,3.018-1.995,6.098c-0.675,3.081-1.193,5.225-1.558,6.431c3.023-0.031,6.139-1.746,9.346-5.145
		c0.363-0.317,0.637-0.476,0.819-0.476s0.273,0.104,0.273,0.31c0,0.207-0.164,0.484-0.491,0.833
		c-2.114,2.16-4.081,3.668-5.903,4.526c-1.093,0.476-2.514,0.874-4.263,1.191L533.68,243.003z M526.302,237.715
		c0,1.08,0.41,1.961,1.229,2.644c0.82,0.683,1.74,1.024,2.761,1.024c1.02,0,1.803-0.174,2.35-0.524
		c0.729-0.349,1.448-1.81,2.159-4.382c0.71-2.573,1.138-4.843,1.284-6.812l0.219-1.62c-2.005,1.303-4.146,2.985-6.422,5.05
		c-2.277,2.064-3.452,3.43-3.525,4.097C526.32,237.381,526.302,237.556,526.302,237.715z"/>
</g>
</svg>
